<svg width="180" height="29" viewBox="0 0 180 29" fill="none" xmlns="http://www.w3.org/2000/svg">
<path d="M72.0498 25.1915H48.6772V21.0779H58.0886V17.8369H51.4196V4.18738H69.3697V17.8369H62.6384V21.0779H72.0498V25.1915ZM64.8822 13.7857V8.30094H55.9071V13.7857H64.8822Z" fill="#00D6E3"/>
<path d="M97.9156 17.0522V21.1658H88.5042V27.0868H83.892V21.1658H74.4807V17.0522H97.9156ZM77.4101 2.09378H94.4253V6.20735H81.8353V10.5702H95.2978V14.6838H77.4101V2.09378Z" fill="#00D6E3"/>
<path d="M121.038 20.2932V24.2821H101.031V20.2932H121.038ZM109.446 17.6131C108.386 17.6131 107.389 17.4262 106.516 16.9899C105.581 16.6159 104.771 16.1173 104.148 15.4317C103.4 14.8084 102.839 13.9982 102.465 13.1256C102.029 12.253 101.842 11.3181 101.842 10.2586C101.842 9.26136 102.029 8.26413 102.465 7.39155C102.839 6.51898 103.4 5.77106 104.148 5.08546C104.833 4.39987 105.581 3.90126 106.516 3.46497C107.451 3.09101 108.386 2.90403 109.446 2.90403C110.505 2.90403 111.44 3.09101 112.375 3.46497C113.248 3.90126 114.058 4.39987 114.743 5.08546C115.429 5.77106 115.928 6.51898 116.364 7.39155C116.738 8.32645 116.987 9.26136 116.987 10.2586C116.987 11.3181 116.738 12.253 116.364 13.1256C115.928 14.0605 115.367 14.8084 114.743 15.4317C114.058 16.1173 113.248 16.6159 112.375 16.9899C111.44 17.4262 110.505 17.6131 109.446 17.6131ZM109.446 6.95527C108.511 6.95527 107.763 7.2669 107.202 7.89017C106.579 8.57576 106.267 9.32368 106.267 10.2586C106.267 11.1935 106.579 11.9414 107.202 12.5647C107.825 13.1879 108.573 13.4996 109.446 13.4996C109.882 13.4996 110.256 13.4372 110.692 13.2503C111.066 13.1256 111.378 12.8763 111.689 12.5647C112.001 12.253 112.188 11.9414 112.375 11.5051C112.562 11.1312 112.624 10.6949 112.624 10.2586C112.624 9.8223 112.5 9.38601 112.375 8.94972C112.188 8.57576 111.939 8.2018 111.689 7.89017C111.378 7.57853 111.066 7.39155 110.692 7.20457C110.256 7.01759 109.882 6.95527 109.446 6.95527ZM124.903 27.6477H120.415V2.09378H124.903V27.6477Z" fill="#00D6E3"/>
<path d="M151.455 17.2144V21.328H142.044V27.2491H137.431V21.328H128.02V17.2144H151.455ZM144.163 5.31004V1.57043H148.65V14.7214H130.7V1.63276H135.188V5.37236L144.163 5.31004ZM135.25 5.31004H144.225H135.25ZM135.25 8.80033V11.2311H144.225V8.80033H135.25Z" fill="#00D6E3"/>
<path d="M166.101 22.6616H161.489V16.6782H153.386V12.5023H161.489V8.94972H153.386V4.7115H166.101V22.6616ZM175.575 14.6838H173.019V27.6477H168.657V2.09378H173.019V10.6949H175.575V2.09378H180V27.7101H175.575V14.6838Z" fill="#00D6E3"/>
<path d="M6.21709 13.6088H0.00012207V0H16.7494V13.6088H10.4593H6.21709ZM12.5803 9.78359V3.82516H4.16915V9.78359H12.5803Z" fill="#00D6E3"/>
<path d="M35.2204 28.6243H31.0009V26.0496H18.8428V22.2592H31.0009V19.0408H18.8428V15.1789H35.2204V28.6243Z" fill="#00D6E3"/>
<rect x="18.8428" y="9.42133" width="16.2258" height="4.18731" fill="#00D6E3"/>
<rect x="18.8428" width="16.2258" height="4.18731" fill="#00D6E3"/>
<rect x="4.1875" y="15.1789" width="13.6088" height="4.18731" transform="rotate(90 4.1875 15.1789)" fill="#00D6E3"/>
<rect x="16.7502" y="15.1789" width="13.6088" height="4.18731" transform="rotate(90 16.7502 15.1789)" fill="#00D6E3"/>
</svg>
