<svg width="588" height="330" viewBox="0 0 588 400" fill="none" xmlns="http://www.w3.org/2000/svg">
<ellipse cx="235.5" cy="144" rx="66.5" ry="26" fill="#ED9920"/>
<rect x="169" y="118" width="133" height="26" fill="#ED9920"/>
<ellipse cx="235.5" cy="118" rx="66.5" ry="26" fill="#FFCD40"/>
<ellipse cx="236" cy="116" rx="56" ry="20" fill="#FFBF3E"/>
<path fill-rule="evenodd" clip-rule="evenodd" d="M291.374 119C291.786 118.021 292 117.02 292 116C292 104.954 266.928 96 236 96C205.072 96 180 104.954 180 116C180 117.02 180.214 118.021 180.626 119C184.679 109.377 207.927 102 236 102C264.073 102 287.321 109.377 291.374 119Z" fill="#ED9920"/>
<ellipse cx="258.5" cy="99" rx="66.5" ry="26" fill="#ED9920"/>
<rect x="192" y="73" width="133" height="26" fill="#ED9920"/>
<ellipse cx="258.5" cy="73" rx="66.5" ry="26" fill="#FFCD40"/>
<ellipse cx="259" cy="71" rx="56" ry="20" fill="#FFBF3E"/>
<path fill-rule="evenodd" clip-rule="evenodd" d="M314.374 74C314.786 73.0214 315 72.0196 315 71C315 59.9543 289.928 51 259 51C228.072 51 203 59.9543 203 71C203 72.0196 203.214 73.0214 203.626 74C207.679 64.3775 230.927 57 259 57C287.073 57 310.321 64.3775 314.374 74Z" fill="#ED9920"/>
<ellipse cx="242.5" cy="52" rx="66.5" ry="26" fill="#ED9920"/>
<rect x="176" y="26" width="133" height="26" fill="#ED9920"/>
<ellipse cx="242.5" cy="26" rx="66.5" ry="26" fill="#FFCD40"/>
<ellipse cx="243" cy="24" rx="56" ry="20" fill="#FFBF3E"/>
<path fill-rule="evenodd" clip-rule="evenodd" d="M298.374 27C298.786 26.0214 299 25.0196 299 24C299 12.9543 273.928 4 243 4C212.072 4 187 12.9543 187 24C187 25.0196 187.214 26.0214 187.626 27C191.679 17.3775 214.927 10 243 10C271.073 10 294.321 17.3775 298.374 27Z" fill="#ED9920"/>
<ellipse cx="86.0465" cy="96.7593" rx="57.7564" ry="22.5814" transform="rotate(-20.8441 86.0465 96.7593)" fill="#ED9920"/>
<rect x="24.0352" y="96.207" width="115.513" height="22.5814" transform="rotate(-20.8441 24.0352 96.207)" fill="#ED9920"/>
<ellipse cx="78.0114" cy="75.6538" rx="57.7564" ry="22.5814" transform="rotate(-20.8441 78.0114 75.6538)" fill="#FFCD40"/>
<ellipse cx="77.7994" cy="73.8764" rx="48.6369" ry="17.3703" transform="rotate(-20.8441 77.7994 73.8764)" fill="#FFBF3E"/>
<path fill-rule="evenodd" clip-rule="evenodd" d="M123.672 59.1992C123.704 58.2773 123.568 57.3979 123.253 56.57C119.84 47.6045 96.7219 48.0849 71.6185 57.6429C46.5151 67.2009 28.932 82.2172 32.3456 91.1827C32.6607 92.0103 33.1437 92.7574 33.7807 93.4243C34.0974 84.3615 50.6872 71.1892 73.4728 62.5137C96.2589 53.838 117.409 52.6414 123.672 59.1992Z" fill="#ED9920"/>
<path d="M83.3298 62.7755L86.6539 69.8232C87.1694 70.9163 87.5625 71.9734 87.8331 72.9945C88.1037 74.0156 88.2005 74.9664 88.1234 75.8467C88.0463 76.727 87.7626 77.5173 87.2723 78.2174C86.791 78.9367 86.0518 79.5315 85.0546 80.0019C84.5559 80.237 84.0353 80.4006 83.4925 80.4925C82.9498 80.5843 82.4086 80.6051 81.8691 80.5548C81.3488 80.4955 80.8397 80.3605 80.3419 80.1499C79.8722 79.9494 79.4521 79.6552 79.0816 79.2673L78.9378 79.3352C79.212 80.6124 79.1132 81.8195 78.6413 82.9564C78.1785 84.1124 77.2279 85.0296 75.7896 85.708C74.7157 86.2145 73.6861 86.4423 72.7008 86.3912C71.7156 86.3402 70.7877 86.0628 69.9171 85.5591C69.0556 85.0746 68.2605 84.3829 67.5318 83.4841C66.8121 82.6044 66.1764 81.5797 65.6247 80.4099L62.0428 72.8156L83.3298 62.7755ZM77.846 73.5907C78.4882 74.9523 79.2033 75.8223 79.9914 76.2008C80.7794 76.5793 81.605 76.5651 82.468 76.158C83.4076 75.7148 83.9296 75.0818 84.0338 74.259C84.1381 73.4362 83.8872 72.3824 83.2812 71.0975L82.0872 68.5661L76.6792 71.1168L77.846 73.5907ZM68.7276 78.4892C69.4151 79.9467 70.1986 80.9369 71.0782 81.4597C71.977 81.9736 72.9825 81.9682 74.0948 81.4436C75.1304 80.9551 75.6974 80.2188 75.7958 79.2346C75.9033 78.2696 75.6088 77.0488 74.9124 75.5721L73.5149 72.6092L67.3302 75.5263L68.7276 78.4892Z" fill="#ED9920"/>
<path d="M259.406 14.3065L259.369 22.8608C259.363 24.4978 259.228 26.0194 258.965 27.4257C258.702 28.8321 258.266 30.0511 257.66 31.0829C257.053 32.1147 256.246 32.916 255.239 33.4868C254.232 34.0864 252.981 34.3835 251.488 34.3782C250.741 34.3756 250.009 34.2725 249.292 34.0689C248.575 33.8654 247.901 33.5758 247.27 33.2002C246.668 32.8248 246.124 32.3633 245.638 31.8159C245.18 31.2974 244.838 30.6931 244.61 30.003L244.395 30.0022C243.987 31.724 243.163 33.1427 241.925 34.2584C240.686 35.4028 238.989 35.9712 236.835 35.9636C235.227 35.9579 233.835 35.6371 232.66 35.0011C231.485 34.3652 230.511 33.4858 229.74 32.363C228.968 31.2689 228.398 29.9602 228.03 28.4368C227.662 26.942 227.481 25.3187 227.488 23.5669L227.528 14.1941L259.406 14.3065ZM246.404 22.3412C246.397 24.3802 246.765 25.8606 247.508 26.7822C248.252 27.7039 249.27 28.167 250.562 28.1716C251.969 28.1765 252.976 27.7062 253.582 26.7606C254.189 25.815 254.495 24.3801 254.502 22.4559L254.516 19.665L246.417 19.6364L246.404 22.3412ZM232.401 23.0242C232.393 25.2068 232.775 26.8739 233.546 28.0254C234.346 29.177 235.579 29.7557 237.245 29.7616C238.796 29.7671 239.918 29.1966 240.611 28.0503C241.304 26.9327 241.655 25.2682 241.663 23.0568L241.678 19.6197L232.416 19.587L232.401 23.0242Z" fill="#ED9920"/>
<ellipse cx="537.517" cy="363.687" rx="46.449" ry="18.1605" transform="rotate(-25.3024 537.517 363.687)" fill="#ED9920"/>
<rect x="487.762" y="367.121" width="92.8981" height="18.1605" transform="rotate(-25.3024 487.762 367.121)" fill="#ED9920"/>
<ellipse cx="529.755" cy="347.269" rx="46.449" ry="18.1605" transform="rotate(-25.3024 529.755 347.269)" fill="#FFCD40"/>
<ellipse cx="529.474" cy="345.857" rx="39.115" ry="13.9696" transform="rotate(-25.3024 529.474 345.857)" fill="#FFBF3E"/>
<path fill-rule="evenodd" clip-rule="evenodd" d="M565.336 331.22C565.304 330.479 565.14 329.783 564.836 329.14C561.539 322.165 543.033 323.995 523.503 333.228C503.973 342.461 490.814 355.6 494.111 362.575C494.415 363.219 494.85 363.788 495.402 364.283C495.088 356.996 507.566 345.397 525.294 337.016C543.021 328.635 559.904 326.354 565.336 331.22Z" fill="#ED9920"/>
<ellipse cx="37.922" cy="193.168" rx="35.544" ry="13.8969" transform="rotate(27.8113 37.922 193.168)" fill="#ED9920"/>
<rect x="12.9674" y="164.293" width="71.0881" height="13.8969" transform="rotate(27.8113 12.9674 164.293)" fill="#ED9920"/>
<ellipse cx="44.4066" cy="180.875" rx="35.544" ry="13.8969" transform="rotate(27.8113 44.4066 180.875)" fill="#FFCD40"/>
<ellipse cx="45.1413" cy="180.057" rx="29.9318" ry="10.6899" transform="rotate(27.8113 45.1413 180.057)" fill="#FFBF3E"/>
<path fill-rule="evenodd" clip-rule="evenodd" d="M70.5725 195.283C71.011 194.924 71.3615 194.504 71.6156 194.022C74.3702 188.8 64.7502 178.314 50.1288 170.602C35.5074 162.889 21.4214 160.87 18.6669 166.092C18.4124 166.574 18.2635 167.102 18.2145 167.668C22.5293 164.129 35.3607 166.438 48.6332 173.439C61.9035 180.439 71.054 189.723 70.5725 195.283Z" fill="#ED9920"/>
<path d="M190.283 250.08C191.483 250.46 192.423 251.1 193.103 252C193.783 252.88 194.123 253.97 194.123 255.27C194.123 257.11 193.403 258.53 191.963 259.53C190.543 260.51 188.463 261 185.723 261H174.863V240H185.123C187.683 240 189.643 240.49 191.003 241.47C192.383 242.45 193.073 243.78 193.073 245.46C193.073 246.48 192.823 247.39 192.323 248.19C191.843 248.99 191.163 249.62 190.283 250.08ZM179.693 243.66V248.61H184.523C185.723 248.61 186.633 248.4 187.253 247.98C187.873 247.56 188.183 246.94 188.183 246.12C188.183 245.3 187.873 244.69 187.253 244.29C186.633 243.87 185.723 243.66 184.523 243.66H179.693ZM185.363 257.34C186.643 257.34 187.603 257.13 188.243 256.71C188.903 256.29 189.233 255.64 189.233 254.76C189.233 253.02 187.943 252.15 185.363 252.15H179.693V257.34H185.363ZM207.973 261.36C205.793 261.36 203.823 260.89 202.063 259.95C200.323 259.01 198.953 257.72 197.953 256.08C196.973 254.42 196.483 252.56 196.483 250.5C196.483 248.44 196.973 246.59 197.953 244.95C198.953 243.29 200.323 241.99 202.063 241.05C203.823 240.11 205.793 239.64 207.973 239.64C210.153 239.64 212.113 240.11 213.853 241.05C215.593 241.99 216.963 243.29 217.963 244.95C218.963 246.59 219.463 248.44 219.463 250.5C219.463 252.56 218.963 254.42 217.963 256.08C216.963 257.72 215.593 259.01 213.853 259.95C212.113 260.89 210.153 261.36 207.973 261.36ZM207.973 257.22C209.213 257.22 210.333 256.94 211.333 256.38C212.333 255.8 213.113 255 213.673 253.98C214.253 252.96 214.543 251.8 214.543 250.5C214.543 249.2 214.253 248.04 213.673 247.02C213.113 246 212.333 245.21 211.333 244.65C210.333 244.07 209.213 243.78 207.973 243.78C206.733 243.78 205.613 244.07 204.613 244.65C203.613 245.21 202.823 246 202.243 247.02C201.683 248.04 201.403 249.2 201.403 250.5C201.403 251.8 201.683 252.96 202.243 253.98C202.823 255 203.613 255.8 204.613 256.38C205.613 256.94 206.733 257.22 207.973 257.22ZM242.375 240V261H238.385L227.915 248.25V261H223.115V240H227.135L237.575 252.75V240H242.375ZM256.674 261.36C253.674 261.36 251.334 260.53 249.654 258.87C247.994 257.21 247.164 254.84 247.164 251.76V240H252.024V251.58C252.024 255.34 253.584 257.22 256.704 257.22C258.224 257.22 259.384 256.77 260.184 255.87C260.984 254.95 261.384 253.52 261.384 251.58V240H266.184V251.76C266.184 254.84 265.344 257.21 263.664 258.87C262.004 260.53 259.674 261.36 256.674 261.36ZM277.886 261.36C276.226 261.36 274.616 261.14 273.056 260.7C271.516 260.24 270.276 259.65 269.336 258.93L270.986 255.27C271.886 255.93 272.956 256.46 274.196 256.86C275.436 257.26 276.676 257.46 277.916 257.46C279.296 257.46 280.316 257.26 280.976 256.86C281.636 256.44 281.966 255.89 281.966 255.21C281.966 254.71 281.766 254.3 281.366 253.98C280.986 253.64 280.486 253.37 279.866 253.17C279.266 252.97 278.446 252.75 277.406 252.51C275.806 252.13 274.496 251.75 273.476 251.37C272.456 250.99 271.576 250.38 270.836 249.54C270.116 248.7 269.756 247.58 269.756 246.18C269.756 244.96 270.086 243.86 270.746 242.88C271.406 241.88 272.396 241.09 273.716 240.51C275.056 239.93 276.686 239.64 278.606 239.64C279.946 239.64 281.256 239.8 282.536 240.12C283.816 240.44 284.936 240.9 285.896 241.5L284.396 245.19C282.456 244.09 280.516 243.54 278.576 243.54C277.216 243.54 276.206 243.76 275.546 244.2C274.906 244.64 274.586 245.22 274.586 245.94C274.586 246.66 274.956 247.2 275.696 247.56C276.456 247.9 277.606 248.24 279.146 248.58C280.746 248.96 282.056 249.34 283.076 249.72C284.096 250.1 284.966 250.7 285.686 251.52C286.426 252.34 286.796 253.45 286.796 254.85C286.796 256.05 286.456 257.15 285.776 258.15C285.116 259.13 284.116 259.91 282.776 260.49C281.436 261.07 279.806 261.36 277.886 261.36Z" fill="#00D6E3"/>
<path d="M194.244 298.36C192.104 298.36 190.164 297.9 188.424 296.98C186.704 296.04 185.344 294.75 184.344 293.11C183.364 291.45 182.874 289.58 182.874 287.5C182.874 285.42 183.364 283.56 184.344 281.92C185.344 280.26 186.704 278.97 188.424 278.05C190.164 277.11 192.114 276.64 194.274 276.64C196.094 276.64 197.734 276.96 199.194 277.6C200.674 278.24 201.914 279.16 202.914 280.36L199.794 283.24C198.374 281.6 196.614 280.78 194.514 280.78C193.214 280.78 192.054 281.07 191.034 281.65C190.014 282.21 189.214 283 188.634 284.02C188.074 285.04 187.794 286.2 187.794 287.5C187.794 288.8 188.074 289.96 188.634 290.98C189.214 292 190.014 292.8 191.034 293.38C192.054 293.94 193.214 294.22 194.514 294.22C196.614 294.22 198.374 293.39 199.794 291.73L202.914 294.61C201.914 295.83 200.674 296.76 199.194 297.4C197.714 298.04 196.064 298.36 194.244 298.36ZM219.616 293.5H209.866L208.006 298H203.026L212.386 277H217.186L226.576 298H221.476L219.616 293.5ZM218.086 289.81L214.756 281.77L211.426 289.81H218.086ZM235.655 298.36C233.995 298.36 232.385 298.14 230.825 297.7C229.285 297.24 228.045 296.65 227.105 295.93L228.755 292.27C229.655 292.93 230.725 293.46 231.965 293.86C233.205 294.26 234.445 294.46 235.685 294.46C237.065 294.46 238.085 294.26 238.745 293.86C239.405 293.44 239.735 292.89 239.735 292.21C239.735 291.71 239.535 291.3 239.135 290.98C238.755 290.64 238.255 290.37 237.635 290.17C237.035 289.97 236.215 289.75 235.175 289.51C233.575 289.13 232.265 288.75 231.245 288.37C230.225 287.99 229.345 287.38 228.605 286.54C227.885 285.7 227.525 284.58 227.525 283.18C227.525 281.96 227.855 280.86 228.515 279.88C229.175 278.88 230.165 278.09 231.485 277.51C232.825 276.93 234.455 276.64 236.375 276.64C237.715 276.64 239.025 276.8 240.305 277.12C241.585 277.44 242.705 277.9 243.665 278.5L242.165 282.19C240.225 281.09 238.285 280.54 236.345 280.54C234.985 280.54 233.975 280.76 233.315 281.2C232.675 281.64 232.355 282.22 232.355 282.94C232.355 283.66 232.725 284.2 233.465 284.56C234.225 284.9 235.375 285.24 236.915 285.58C238.515 285.96 239.825 286.34 240.845 286.72C241.865 287.1 242.735 287.7 243.455 288.52C244.195 289.34 244.565 290.45 244.565 291.85C244.565 293.05 244.225 294.15 243.545 295.15C242.885 296.13 241.885 296.91 240.545 297.49C239.205 298.07 237.575 298.36 235.655 298.36ZM267.146 277V298H262.286V289.39H252.746V298H247.886V277H252.746V285.28H262.286V277H267.146ZM271.184 277H276.764L275.834 290.71H272.114L271.184 277ZM273.974 298.24C273.154 298.24 272.464 297.98 271.904 297.46C271.364 296.92 271.094 296.27 271.094 295.51C271.094 294.75 271.364 294.12 271.904 293.62C272.444 293.1 273.134 292.84 273.974 292.84C274.814 292.84 275.504 293.1 276.044 293.62C276.584 294.12 276.854 294.75 276.854 295.51C276.854 296.27 276.574 296.92 276.014 297.46C275.474 297.98 274.794 298.24 273.974 298.24Z" fill="#00D6E3"/>
<line x1="326.5" y1="243.5" x2="326.5" y2="248.5" stroke="#00D6E3" stroke-width="3" stroke-linecap="round"/>
<line x1="326.5" y1="260.5" x2="326.5" y2="265.5" stroke="#00D6E3" stroke-width="3" stroke-linecap="round"/>
<line x1="337.5" y1="254.5" x2="332.5" y2="254.5" stroke="#00D6E3" stroke-width="3" stroke-linecap="round"/>
<line x1="320.5" y1="254.5" x2="315.5" y2="254.5" stroke="#00D6E3" stroke-width="3" stroke-linecap="round"/>
<line x1="165.456" y1="315.899" x2="161.92" y2="319.434" stroke="#00D6E3" stroke-width="3" stroke-linecap="round"/>
<line x1="153.435" y1="327.918" x2="149.9" y2="331.454" stroke="#00D6E3" stroke-width="3" stroke-linecap="round"/>
<line x1="165.456" y1="331.457" x2="161.92" y2="327.922" stroke="#00D6E3" stroke-width="3" stroke-linecap="round"/>
<line x1="153.435" y1="319.437" x2="149.9" y2="315.902" stroke="#00D6E3" stroke-width="3" stroke-linecap="round"/>
<circle cx="147.5" cy="290.5" r="4.5" fill="#FF5C00"/>
<circle cx="315.5" cy="213.5" r="6" stroke="#FF5C00"/>
<circle opacity="0.5" cx="310.5" cy="230.5" r="2.5" fill="#FF5C00"/>
<ellipse cx="466.276" cy="244.964" rx="66.5" ry="26" transform="rotate(17.9511 466.276 244.964)" fill="#ED9920"/>
<rect x="411.027" y="199.734" width="133" height="26" transform="rotate(17.9511 411.027 199.734)" fill="#ED9920"/>
<ellipse cx="474.289" cy="220.23" rx="66.5" ry="26" transform="rotate(17.9511 474.289 220.23)" fill="#FFCD40"/>
<ellipse cx="475.382" cy="218.481" rx="56" ry="20" transform="rotate(17.9511 475.382 218.481)" fill="#FFBF3E"/>
<path fill-rule="evenodd" clip-rule="evenodd" d="M527.136 238.402C527.829 237.598 528.341 236.711 528.655 235.741C532.06 225.233 510.968 208.987 481.546 199.455C452.123 189.923 425.512 190.714 422.108 201.222C421.793 202.192 421.688 203.211 421.778 204.269C428.6 196.364 452.99 196.51 479.696 205.163C506.403 213.815 526.246 227.999 527.136 238.402Z" fill="#ED9920"/>
<path d="M498.687 218.063L495.325 225.929C494.683 227.435 493.966 228.784 493.177 229.977C492.387 231.17 491.512 232.124 490.551 232.838C489.591 233.553 488.536 233.977 487.386 234.111C486.225 234.271 484.957 234.058 483.584 233.473C482.897 233.18 482.263 232.8 481.681 232.333C481.099 231.867 480.591 231.338 480.157 230.746C479.748 230.166 479.427 229.53 479.192 228.836C478.972 228.18 478.891 227.491 478.95 226.766L478.752 226.682C477.706 228.109 476.396 229.096 474.821 229.642C473.234 230.214 471.45 230.077 469.469 229.232C467.989 228.601 466.832 227.764 465.997 226.721C465.162 225.678 464.607 224.489 464.333 223.155C464.048 221.847 464.032 220.42 464.286 218.873C464.529 217.353 464.993 215.787 465.681 214.176L469.364 205.557L498.687 218.063ZM483.583 220.406C482.783 222.282 482.547 223.788 482.873 224.927C483.199 226.065 483.957 226.888 485.145 227.395C486.44 227.947 487.55 227.905 488.477 227.27C489.404 226.635 490.244 225.432 490.999 223.662L492.097 221.097L484.648 217.919L483.583 220.406ZM470.418 215.587C469.561 217.595 469.265 219.279 469.527 220.64C469.816 222.012 470.727 223.025 472.259 223.678C473.685 224.287 474.941 224.198 476.026 223.412C477.099 222.652 478.07 221.255 478.937 219.221L480.289 216.06L471.769 212.427L470.418 215.587Z" fill="#ED9920"/>
</svg>
