<svg width="108" height="89" viewBox="0 0 108 89" fill="none" xmlns="http://www.w3.org/2000/svg">
<ellipse cx="57.5166" cy="52.6902" rx="46.449" ry="18.1605" transform="rotate(-25.3024 57.5166 52.6902)" fill="#ED9920"/>
<rect x="7.76196" y="56.124" width="92.8981" height="18.1605" transform="rotate(-25.3024 7.76196 56.124)" fill="#ED9920"/>
<ellipse cx="49.7552" cy="36.2712" rx="46.449" ry="18.1605" transform="rotate(-25.3024 49.7552 36.2712)" fill="#FFCD40"/>
<ellipse cx="49.4735" cy="34.8591" rx="39.115" ry="13.9696" transform="rotate(-25.3024 49.4735 34.8591)" fill="#FFBF3E"/>
<path fill-rule="evenodd" clip-rule="evenodd" d="M85.3364 20.222C85.3044 19.4813 85.1403 18.7852 84.836 18.1415C81.5386 11.1665 63.0331 12.9968 43.503 22.2297C23.9728 31.4625 10.8136 44.6017 14.1111 51.5767C14.4155 52.2207 14.8495 52.7895 15.402 53.2845C15.0877 45.9983 27.5663 34.3988 45.2943 26.0179C63.0214 17.6374 79.9043 15.3557 85.3364 20.222Z" fill="#ED9920"/>
</svg>


