<svg width="30" height="30" viewBox="0 0 30 30" fill="none" xmlns="http://www.w3.org/2000/svg">
<path d="M30 15C30 6.71507 23.2849 0 15 0C6.71507 0 0 6.71507 0 15C0 22.4877 5.48219 28.6931 12.6575 29.8192V19.3397H8.85205V15H12.6575V11.6959C12.6575 7.93973 14.8932 5.86027 18.3205 5.86027C19.9644 5.86027 21.6822 6.15616 21.6822 6.15616V9.84658H19.7918C17.926 9.84658 17.3507 11.0055 17.3507 12.189V15H21.5096L20.8438 19.3397H17.3425V29.8192C24.5178 28.6931 30 22.4877 30 15Z" fill="#1877F2"/>
<path d="M20.836 19.3388L21.5017 14.9991H17.3428V12.1881C17.3428 11.0046 17.9264 9.84568 19.7839 9.84568H21.6743V6.15527C21.6743 6.15527 19.9565 5.85938 18.3127 5.85938C14.8853 5.85938 12.6497 7.93883 12.6497 11.695V14.9991H8.84419V19.3388H12.6579V29.8183C13.4223 29.9416 14.2031 29.9991 15.0004 29.9991C15.7976 29.9991 16.5784 29.9333 17.3428 29.8183V19.3388H20.836Z" fill="white"/>
</svg>
