<svg width="126" height="25" viewBox="0 0 126 25" fill="none" xmlns="http://www.w3.org/2000/svg">
<path d="M22.4651 21.8639H0V17.9569H9.0161V14.8764H2.6297V1.65283H19.8354V14.8013H13.3739V17.8818H22.39V21.8639H22.4651ZM15.5528 10.8943V5.63494H6.91234V10.8943H15.5528Z" fill="#DCDCDC"/>
<path d="M47.2594 14.9517V18.8587H38.2433V24.5689H33.8104V18.8587H24.7943V14.9517H47.2594ZM27.5742 0.601074H43.9535V4.50805H31.8569V8.64043H44.7799V12.5474H27.5742V0.601074Z" fill="#DCDCDC"/>
<path d="M69.4243 17.5063V21.3381H50.265V17.5063H69.4243ZM58.3044 14.8766C57.2525 14.8766 56.3509 14.7263 55.4493 14.2755C54.5477 13.8998 53.7963 13.449 53.1201 12.7728C52.4439 12.1717 51.918 11.4204 51.5423 10.5188C51.1667 9.69231 50.9413 8.7907 50.9413 7.73882C50.9413 6.76208 51.0915 5.86047 51.5423 4.95886C51.918 4.13238 52.4439 3.38104 53.1201 2.70483C53.7212 2.10376 54.4726 1.57782 55.4493 1.20215C56.3509 0.90161 57.3277 0.751342 58.3044 0.751342C59.2811 0.751342 60.2579 0.90161 61.1595 1.27728C61.986 1.65295 62.8124 2.17889 63.4887 2.77996C64.0897 3.45617 64.6157 4.13238 65.0665 5.03399C65.4421 5.9356 65.6675 6.83721 65.6675 7.81395C65.6675 8.7907 65.4421 9.69231 65.0665 10.5939C64.6157 11.4955 64.1649 12.2469 63.4887 12.8479C62.8124 13.5242 62.0611 13.975 61.1595 14.3506C60.2579 14.7263 59.2811 14.8766 58.3044 14.8766ZM58.3044 4.65832C57.4028 4.65832 56.7266 4.95886 56.1255 5.55993C55.5244 6.161 55.2239 6.91234 55.2239 7.81395C55.2239 8.71556 55.5244 9.46691 56.1255 10.068C56.7266 10.6691 57.4028 10.9696 58.3044 10.9696C58.6801 10.9696 59.0557 10.8945 59.5065 10.7442C59.8822 10.5939 60.1828 10.3685 60.4833 10.068C60.7838 9.76744 60.9341 9.46691 61.1595 9.0161C61.3098 8.64043 61.3849 8.26476 61.3849 7.81395C61.3849 7.36315 61.3098 6.98748 61.1595 6.61181C61.0092 6.23614 60.7838 5.86047 60.4833 5.55993C60.1828 5.25939 59.8822 5.10912 59.5065 4.88372C59.1309 4.73345 58.6801 4.65832 58.3044 4.65832ZM73.1058 24.5689H68.8232V0H73.1058V24.5689Z" fill="#DCDCDC"/>
<path d="M98.6515 14.9517V18.8587H89.6354V24.5689H85.2024V18.8587H76.1863V14.9517H98.6515ZM83.0987 0V3.53131H91.664V0H95.9466V12.6225H78.7409V0H83.0987ZM83.0987 6.91234V9.2415H91.664V6.91234H83.0987Z" fill="#DCDCDC"/>
<path d="M112.701 19.7603H108.268V14.0501H100.455V10.068H108.268V6.61181H100.455V2.55456H112.701V19.7603ZM121.793 12.0966H119.313V24.5689H115.181V0H119.313V8.26476H121.793V0H126V24.5689H121.793V12.0966Z" fill="#DCDCDC"/>
</svg>
