<svg width="145" height="114" viewBox="0 0 145 114" fill="none" xmlns="http://www.w3.org/2000/svg">
<circle opacity="0.3" cx="139" cy="34" r="6" fill="#00D6E3"/>
<g clip-path="url(#clip0)">
<path d="M52.8 70.9H36.4H31.2H26.9H22.3C20.8 70.9 19.5 71.5 18.4 72.5L4 87.4C3.2 88.1 2 87.5 2 86.4V23.7C2 18 6.6 13.5 12.2 13.5H67.7C73.4 13.5 78 18 78 23.7V34" stroke="#D1D1D1" stroke-width="3" stroke-miterlimit="10" stroke-linecap="round"/>
<path d="M52.8 85.5V88C52.8 92.9 56.8 96.9 61.7 96.9H89.1H93.7H97.5H101.5C102.8 96.9 104 97.4 104.9 98.3L117.5 111.3C118.2 111.9 119.3 111.4 119.3 110.5V55.5999C119.3 50.6999 115.3 46.7 110.4 46.7H61.7C56.8 46.7 52.8 50.6999 52.8 55.5999V70.5V75.9V80V85.5V85.5Z" stroke="#D1D1D1" stroke-width="3" stroke-miterlimit="10" stroke-linecap="round"/>
<path d="M19.9 34.3H60" stroke="#D1D1D1" stroke-width="3" stroke-miterlimit="10" stroke-linecap="round"/>
<path d="M19.9 48.6001H36.9" stroke="#D1D1D1" stroke-width="3" stroke-miterlimit="10" stroke-linecap="round"/>
<path d="M69.7 63.7H102.3" stroke="#D1D1D1" stroke-width="3" stroke-miterlimit="10" stroke-linecap="round"/>
<path d="M88.5 79H102.3" stroke="#D1D1D1" stroke-width="3" stroke-miterlimit="10" stroke-linecap="round"/>
<circle cx="16" cy="99" r="4" fill="#00D6E3"/>
</g>
<path d="M119.732 11.7329L116.656 8.65735" stroke="#00D6E3" stroke-width="2" stroke-linecap="round"/>
<path d="M127.97 19.9702L124.894 16.8947" stroke="#00D6E3" stroke-width="2" stroke-linecap="round"/>
<path d="M124.894 11.7324L127.97 8.65662" stroke="#00D6E3" stroke-width="2" stroke-linecap="round"/>
<path d="M116.656 19.97L119.732 16.8942" stroke="#00D6E3" stroke-width="2" stroke-linecap="round"/>
<defs>
<clipPath id="clip0">
<rect width="121.1" height="113.5" fill="white"/>
</clipPath>
</defs>
</svg>
