<svg width="140" height="105" viewBox="0 0 140 105" fill="none" xmlns="http://www.w3.org/2000/svg">
<circle opacity="0.5" cx="115" cy="43" r="6" fill="white"/>
<path d="M79.3 18.5H89.7C93 18.5 95.6 21.1 95.6 24.4V39H2V24.4C2 21.1 4.6 18.5 7.9 18.5H22.4" stroke="white" stroke-width="3" stroke-miterlimit="10" stroke-linecap="round"/>
<path d="M34.6 18.5H66.1" stroke="white" stroke-width="3" stroke-miterlimit="10" stroke-linecap="round"/>
<path d="M95.6 38.7V99.1999C95.6 101.6 93.7 103.5 91.3 103.5H6.3C3.9 103.5 2 101.6 2 99.1999V38.7" stroke="white" stroke-width="3" stroke-miterlimit="10" stroke-linecap="round"/>
<path d="M22.4 22.8V13" stroke="white" stroke-width="3" stroke-miterlimit="10" stroke-linecap="round"/>
<path d="M67.4 22.8V13" stroke="white" stroke-width="3" stroke-miterlimit="10" stroke-linecap="round"/>
<path d="M27.9004 62.5996H69.8004" stroke="white" stroke-width="3" stroke-miterlimit="10" stroke-linecap="round"/>
<path d="M27.9004 79.2002H51.3004" stroke="white" stroke-width="3" stroke-miterlimit="10" stroke-linecap="round"/>
<path d="M119.045 12.0457L114.803 7.80298" stroke="white" stroke-width="2" stroke-linecap="round"/>
<path d="M130.409 23.4099L126.167 19.1672" stroke="white" stroke-width="2" stroke-linecap="round"/>
<path d="M126.166 12.0461L130.409 7.80347" stroke="white" stroke-width="2" stroke-linecap="round"/>
<path d="M114.803 23.4094L119.045 19.1667" stroke="white" stroke-width="2" stroke-linecap="round"/>
</svg>
