<svg width="180" height="29" viewBox="0 0 180 29" fill="none" xmlns="http://www.w3.org/2000/svg">
<path d="M72.0497 25.1914H48.6771V21.0778H58.0885V17.8368H51.4195V4.18726H69.3696V17.8368H62.6383V21.0778H72.0497V25.1914ZM64.8821 13.7856V8.30082H55.907V13.7856H64.8821Z" fill="#00D6E3"/>
<path d="M97.9156 17.0522V21.1657H88.5043V27.0868H83.8921V21.1657H74.4808V17.0522H97.9156ZM77.4101 2.09375H94.4253V6.20732H81.8353V10.5702H95.2979V14.6838H77.4101V2.09375Z" fill="#00D6E3"/>
<path d="M121.038 20.2932V24.2821H101.031V20.2932H121.038ZM109.446 17.6131C108.386 17.6131 107.389 17.4261 106.516 16.9898C105.581 16.6159 104.771 16.1173 104.148 15.4317C103.4 14.8084 102.839 13.9982 102.465 13.1256C102.029 12.253 101.842 11.3181 101.842 10.2586C101.842 9.26133 102.029 8.2641 102.465 7.39152C102.839 6.51895 103.4 5.77103 104.148 5.08543C104.833 4.39984 105.581 3.90123 106.516 3.46494C107.451 3.09098 108.386 2.904 109.446 2.904C110.505 2.904 111.44 3.09098 112.375 3.46494C113.248 3.90123 114.058 4.39984 114.743 5.08543C115.429 5.77103 115.928 6.51895 116.364 7.39152C116.738 8.32642 116.987 9.26133 116.987 10.2586C116.987 11.3181 116.738 12.253 116.364 13.1256C115.928 14.0605 115.367 14.8084 114.743 15.4317C114.058 16.1173 113.248 16.6159 112.375 16.9898C111.44 17.4261 110.505 17.6131 109.446 17.6131ZM109.446 6.95524C108.511 6.95524 107.763 7.26687 107.202 7.89014C106.579 8.57573 106.267 9.32365 106.267 10.2586C106.267 11.1935 106.579 11.9414 107.202 12.5646C107.825 13.1879 108.573 13.4995 109.446 13.4995C109.882 13.4995 110.256 13.4372 110.692 13.2502C111.066 13.1256 111.378 12.8763 111.689 12.5646C112.001 12.253 112.188 11.9414 112.375 11.5051C112.562 11.1311 112.624 10.6948 112.624 10.2586C112.624 9.82227 112.5 9.38598 112.375 8.94969C112.188 8.57573 111.939 8.20177 111.689 7.89014C111.378 7.5785 111.066 7.39152 110.692 7.20454C110.256 7.01756 109.882 6.95524 109.446 6.95524ZM124.903 27.6477H120.415V2.09375H124.903V27.6477Z" fill="#00D6E3"/>
<path d="M151.455 17.2143V21.3279H142.043V27.2489H137.431V21.3279H128.02V17.2143H151.455ZM144.163 5.30992V1.57031H148.65V14.7213H130.7V1.63264H135.188V5.37224L144.163 5.30992ZM135.25 5.30992H144.225H135.25ZM135.25 8.80021V11.231H144.225V8.80021H135.25Z" fill="#00D6E3"/>
<path d="M166.101 22.6616H161.489V16.6782H153.386V12.5023H161.489V8.94969H153.386V4.71147H166.101V22.6616ZM175.575 14.6838H173.019V27.6477H168.656V2.09375H173.019V10.6948H175.575V2.09375H180V27.71H175.575V14.6838Z" fill="#00D6E3"/>
<path d="M6.21703 13.6088H6.10352e-05V0H16.7493V13.6088H10.4592H6.21703ZM12.5803 9.78359V3.82516H4.16909V9.78359H12.5803Z" fill="#00D6E3"/>
<path d="M35.2203 28.6244H31.0008V26.0497H18.8427V22.2593H31.0008V19.0409H18.8427V15.179H35.2203V28.6244Z" fill="#00D6E3"/>
<rect x="18.8427" y="9.42139" width="16.2258" height="4.18731" fill="#00D6E3"/>
<rect x="18.8427" width="16.2258" height="4.18731" fill="#00D6E3"/>
<rect x="4.18744" y="15.179" width="13.6088" height="4.18731" transform="rotate(90 4.18744 15.179)" fill="#00D6E3"/>
<rect x="16.7503" y="15.179" width="13.6088" height="4.18731" transform="rotate(90 16.7503 15.179)" fill="#00D6E3"/>
</svg>
