<svg width="161" height="133" viewBox="0 0 161 133" fill="none" xmlns="http://www.w3.org/2000/svg">
<rect x="40.445" y="59.0254" width="86.6273" height="30.1497" fill="#0CB0BA"/>
<path d="M77.6416 71.1185C81.5049 69.2472 86.0123 69.2472 89.8756 71.1185L126.997 89.1L83.7586 110.044L40.52 89.1L77.6416 71.1185Z" fill="#0CB0BA"/>
<rect x="34.4999" y="49.2588" width="98.5173" height="9.34216" fill="#1EC6D0"/>
<path d="M63.8002 72.8264L63.8002 100.428L54.458 95.9694L54.458 68.1553L63.8002 72.8264Z" fill="#FF5C00"/>
<path d="M113.432 68.0923L113.432 95.6941L104.09 100.143L104.09 72.3291L113.432 68.0923Z" fill="#FF5C00"/>
<path d="M77.6416 37.6959C81.5049 35.8246 86.0123 35.8246 89.8756 37.6959L133.003 58.5863L83.7586 82.4397L34.5146 58.5863L77.6416 37.6959Z" fill="#1EC6D0"/>
<path d="M62.0001 62.3418L62.0001 72.026L52.658 67.5673L52.658 58.105L62.0001 62.3418Z" fill="#FF782D"/>
<path d="M105.316 62.6445L105.316 72.026L114.395 67.5673L114.395 58.105L105.316 62.6445Z" fill="#FF782D"/>
<path d="M84.0001 25.3906L133.244 49.244L84.0001 73.0974L34.756 49.244L84.0001 25.3906Z" fill="#00D6E3"/>
<path d="M108.605 37.3552L62.0001 62.536L52.658 58.0772L99.2632 32.6841L108.605 37.3552Z" fill="#FF833F"/>
<path d="M105.316 62.6445L56.2894 38.7366L65.0657 34.4997L114.697 58.105L105.316 62.6445Z" fill="#FF833F"/>
<path d="M22.5432 18.3123V21.0873H27.4032V23.0373H22.5432V26.8623H20.1132V16.3623H28.0482V18.3123H22.5432ZM36.3833 26.8623L34.3583 23.9373H34.2383H32.1233V26.8623H29.6933V16.3623H34.2383C35.1683 16.3623 35.9733 16.5173 36.6533 16.8273C37.3433 17.1373 37.8733 17.5773 38.2433 18.1473C38.6133 18.7173 38.7983 19.3923 38.7983 20.1723C38.7983 20.9523 38.6083 21.6273 38.2283 22.1973C37.8583 22.7573 37.3283 23.1873 36.6383 23.4873L38.9933 26.8623H36.3833ZM36.3383 20.1723C36.3383 19.5823 36.1483 19.1323 35.7683 18.8223C35.3883 18.5023 34.8333 18.3423 34.1033 18.3423H32.1233V22.0023H34.1033C34.8333 22.0023 35.3883 21.8423 35.7683 21.5223C36.1483 21.2023 36.3383 20.7523 36.3383 20.1723ZM48.8535 24.9123V26.8623H40.7235V16.3623H48.6585V18.3123H43.1385V20.5923H48.0135V22.4823H43.1385V24.9123H48.8535ZM58.917 24.9123V26.8623H50.787V16.3623H58.722V18.3123H53.202V20.5923H58.077V22.4823H53.202V24.9123H58.917Z" fill="#00D6E3"/>
<line x1="153.526" y1="37.3159" x2="153.526" y2="40.158" stroke="#00D6E3" stroke-width="2" stroke-linecap="round"/>
<line x1="153.526" y1="47.6055" x2="153.526" y2="50.4476" stroke="#00D6E3" stroke-width="2" stroke-linecap="round"/>
<line x1="160" y1="43.9741" x2="157.158" y2="43.9741" stroke="#00D6E3" stroke-width="2" stroke-linecap="round"/>
<line x1="149.711" y1="43.9736" x2="146.868" y2="43.9736" stroke="#00D6E3" stroke-width="2" stroke-linecap="round"/>
<line x1="15.4072" y1="67.2536" x2="13.3975" y2="69.2632" stroke="#00D6E3" stroke-width="2" stroke-linecap="round"/>
<line x1="8.1313" y1="74.5294" x2="6.12163" y2="76.5391" stroke="#00D6E3" stroke-width="2" stroke-linecap="round"/>
<line x1="15.2771" y1="76.5391" x2="13.2674" y2="74.5294" stroke="#00D6E3" stroke-width="2" stroke-linecap="round"/>
<line x1="8.00145" y1="69.2632" x2="5.99178" y2="67.2535" stroke="#00D6E3" stroke-width="2" stroke-linecap="round"/>
<circle cx="4.5394" cy="51.7501" r="2.72368" fill="#FF5C00"/>
<circle cx="146.776" cy="19.0656" r="3.43421" stroke="#FF5C00"/>
<circle opacity="0.5" cx="143.75" cy="29.3554" r="1.51316" fill="#FF5C00"/>
</svg>
