<svg width="226" height="45" viewBox="0 0 226 45" fill="none" xmlns="http://www.w3.org/2000/svg">
<path d="M40.0514 40.684H0V33.6349H16.1273V28.0812H4.69936V4.69116H35.4588V28.0812H23.924V33.6349H40.0514V40.684ZM27.7689 21.1389V11.7402H12.3892V21.1389H27.7689Z" fill="white"/>
<path d="M84.3756 26.7366V33.7857H68.2483V43.932H60.3448V33.7857H44.2175V26.7366H84.3756ZM49.2372 1.10376H78.3946V8.1528H56.8203V15.6291H79.8899V22.6781H49.2372V1.10376Z" fill="white"/>
<path d="M123.999 32.2904V39.1259H89.7151V32.2904H123.999ZM104.134 27.6979C102.318 27.6979 100.609 27.3774 99.1138 26.6298C97.5118 25.989 96.1233 25.1346 95.0553 23.9597C93.7736 22.8917 92.8124 21.5033 92.1716 20.008C91.4239 18.5128 91.1035 16.9107 91.1035 15.095C91.1035 13.3862 91.4239 11.6773 92.1716 10.1821C92.8124 8.68682 93.7736 7.40517 95.0553 6.23033C96.2301 5.05549 97.5118 4.20107 99.1138 3.45344C100.716 2.81262 102.318 2.49221 104.134 2.49221C105.949 2.49221 107.551 2.81262 109.153 3.45344C110.649 4.20107 112.037 5.05549 113.212 6.23033C114.387 7.40517 115.241 8.68682 115.989 10.1821C116.63 11.7841 117.057 13.3862 117.057 15.095C117.057 16.9107 116.63 18.5128 115.989 20.008C115.241 21.6101 114.28 22.8917 113.212 23.9597C112.037 25.1346 110.649 25.989 109.153 26.6298C107.551 27.3774 105.949 27.6979 104.134 27.6979ZM104.134 9.43444C102.532 9.43444 101.25 9.96846 100.289 11.0365C99.2206 12.2113 98.6866 13.493 98.6866 15.095C98.6866 16.6971 99.2206 17.9787 100.289 19.0468C101.357 20.1148 102.638 20.6488 104.134 20.6488C104.881 20.6488 105.522 20.542 106.27 20.2216C106.91 20.008 107.444 19.5808 107.979 19.0468C108.513 18.5127 108.833 17.9787 109.153 17.2311C109.474 16.5903 109.581 15.8427 109.581 15.095C109.581 14.3474 109.367 13.5998 109.153 12.8522C108.833 12.2113 108.406 11.5705 107.979 11.0365C107.444 10.5025 106.91 10.1821 106.27 9.86166C105.522 9.54125 104.881 9.43444 104.134 9.43444ZM130.621 44.8932H122.931V1.10376H130.621V44.8932Z" fill="white"/>
<path d="M176.121 27.0145V34.0635H159.993V44.2099H152.09V34.0635H135.962V27.0145H176.121ZM163.625 6.615V0.206787H171.314V22.7424H140.555V0.313589H148.245V6.72181L163.625 6.615ZM148.352 6.615H163.731H148.352ZM148.352 12.596V16.7613H163.731V12.596H148.352Z" fill="white"/>
<path d="M201.218 36.3489H193.315V26.0958H179.43V18.94H193.315V12.8522H179.43V5.58951H201.218V36.3489ZM217.452 22.6781H213.073V44.8932H205.597V1.10376H213.073V15.8427H217.452V1.10376H225.035V45H217.452V22.6781Z" fill="white"/>
</svg>
