<svg width="180" height="29" viewBox="0 0 180 29" fill="none" xmlns="http://www.w3.org/2000/svg">
<path d="M72.0497 25.1915H48.6771V21.0779H58.0885V17.8369H51.4195V4.18738H69.3696V17.8369H62.6383V21.0779H72.0497V25.1915ZM64.8821 13.7857V8.30094H55.907V13.7857H64.8821Z" fill="white"/>
<path d="M97.9156 17.0522V21.1658H88.5043V27.0868H83.8921V21.1658H74.4808V17.0522H97.9156ZM77.4101 2.09381H94.4253V6.20738H81.8353V10.5703H95.2979V14.6838H77.4101V2.09381Z" fill="white"/>
<path d="M121.038 20.2932V24.2821H101.031V20.2932H121.038ZM109.446 17.6132C108.386 17.6132 107.389 17.4262 106.516 16.9899C105.581 16.6159 104.771 16.1173 104.148 15.4317C103.4 14.8085 102.839 13.9982 102.465 13.1256C102.029 12.2531 101.842 11.3182 101.842 10.2586C101.842 9.26139 102.029 8.26416 102.465 7.39158C102.839 6.51901 103.4 5.77109 104.148 5.08549C104.833 4.3999 105.581 3.90129 106.516 3.465C107.451 3.09104 108.386 2.90406 109.446 2.90406C110.505 2.90406 111.44 3.09104 112.375 3.465C113.248 3.90129 114.058 4.3999 114.743 5.08549C115.429 5.77109 115.928 6.51901 116.364 7.39158C116.738 8.32648 116.987 9.26139 116.987 10.2586C116.987 11.3182 116.738 12.2531 116.364 13.1256C115.928 14.0605 115.367 14.8085 114.743 15.4317C114.058 16.1173 113.248 16.6159 112.375 16.9899C111.44 17.4262 110.505 17.6132 109.446 17.6132ZM109.446 6.9553C108.511 6.9553 107.763 7.26693 107.202 7.8902C106.579 8.57579 106.267 9.32371 106.267 10.2586C106.267 11.1935 106.579 11.9414 107.202 12.5647C107.825 13.188 108.573 13.4996 109.446 13.4996C109.882 13.4996 110.256 13.4373 110.692 13.2503C111.066 13.1256 111.378 12.8763 111.689 12.5647C112.001 12.2531 112.188 11.9414 112.375 11.5051C112.562 11.1312 112.624 10.6949 112.624 10.2586C112.624 9.82233 112.5 9.38604 112.375 8.94975C112.188 8.57579 111.939 8.20183 111.689 7.8902C111.378 7.57856 111.066 7.39158 110.692 7.2046C110.256 7.01762 109.882 6.9553 109.446 6.9553ZM124.903 27.6478H120.415V2.09381H124.903V27.6478Z" fill="white"/>
<path d="M151.455 17.2144V21.328H142.043V27.2491H137.431V21.328H128.02V17.2144H151.455ZM144.163 5.31004V1.57043H148.65V14.7214H130.7V1.63276H135.188V5.37236L144.163 5.31004ZM135.25 5.31004H144.225H135.25ZM135.25 8.80033V11.2311H144.225V8.80033H135.25Z" fill="white"/>
<path d="M166.101 22.6616H161.489V16.6783H153.386V12.5024H161.489V8.94975H153.386V4.71153H166.101V22.6616ZM175.575 14.6838H173.019V27.6478H168.656V2.09381H173.019V10.6949H175.575V2.09381H180V27.7101H175.575V14.6838Z" fill="white"/>
<path d="M6.21706 13.6088H9.15527e-05V0H16.7493V13.6088H10.4592H6.21706ZM12.5803 9.78359V3.82516H4.16912V9.78359H12.5803Z" fill="white"/>
<path d="M35.2203 28.6243H31.0008V26.0497H18.8427V22.2592H31.0008V19.0409H18.8427V15.1789H35.2203V28.6243Z" fill="white"/>
<rect x="18.8427" y="9.42133" width="16.2258" height="4.18731" fill="white"/>
<rect x="18.8427" width="16.2258" height="4.18731" fill="white"/>
<rect x="4.18744" y="15.1789" width="13.6088" height="4.18731" transform="rotate(90 4.18744 15.1789)" fill="white"/>
<rect x="16.7503" y="15.1789" width="13.6088" height="4.18731" transform="rotate(90 16.7503 15.1789)" fill="white"/>
</svg>
