<svg width="374" height="285" viewBox="0 0 374 285" fill="none" xmlns="http://www.w3.org/2000/svg">
<rect x="84.3711" y="131.817" width="180.249" height="62.7339" fill="#0CB0BA"/>
<path d="M166.791 154.546C171.657 152.19 177.333 152.19 182.199 154.546L264.464 194.395L174.495 237.975L84.5265 194.395L166.791 154.546Z" fill="#0CB0BA"/>
<rect x="72" y="111.495" width="204.99" height="19.4387" fill="#1EC6D0"/>
<path d="M132.967 160.533L132.967 217.966L113.528 208.688L113.528 150.814L132.967 160.533Z" fill="#FF5C00"/>
<path d="M236.237 150.682L236.237 208.115L216.799 217.372L216.799 159.498L236.237 150.682Z" fill="#FF5C00"/>
<path d="M166.791 85.0017C171.657 82.6449 177.333 82.6449 182.199 85.0017L276.959 130.903L174.495 180.536L72.0308 130.903L166.791 85.0017Z" fill="#1EC6D0"/>
<path d="M129.221 138.718L129.221 158.868L109.782 149.591L109.782 129.902L129.221 138.718Z" fill="#FF782D"/>
<path d="M219.35 139.348L219.35 158.868L238.241 149.591L238.241 129.902L219.35 139.348Z" fill="#FF782D"/>
<path d="M174.495 61.8314L276.959 111.464L174.495 161.097L72.0308 111.464L174.495 61.8314Z" fill="#00D6E3"/>
<path d="M226.194 86.7268L129.221 139.122L109.782 129.844L206.756 77.0075L226.194 86.7268Z" fill="#FF833F"/>
<path d="M219.35 139.348L117.339 89.6015L135.6 80.7857L238.871 129.902L219.35 139.348Z" fill="#FF833F"/>
<path d="M69.625 23.4643V30.4539H81.8664V35.3656H69.625V45H63.5043V18.5526H83.491V23.4643H69.625ZM104.485 45L99.3848 37.6325H99.0826H93.7553V45H87.6346V18.5526H99.0826C101.425 18.5526 103.453 18.943 105.165 19.7239C106.903 20.5047 108.238 21.613 109.17 23.0487C110.102 24.4844 110.568 26.1846 110.568 28.1492C110.568 30.1139 110.09 31.8141 109.133 33.2498C108.201 34.6603 106.866 35.7434 105.128 36.4991L111.059 45H104.485ZM104.372 28.1492C104.372 26.6632 103.893 25.5297 102.936 24.7489C101.979 23.9429 100.581 23.5398 98.7425 23.5398H93.7553V32.7586H98.7425C100.581 32.7586 101.979 32.3556 102.936 31.5496C103.893 30.7436 104.372 29.6101 104.372 28.1492ZM135.895 40.0883V45H115.418V18.5526H135.404V23.4643H121.501V29.2071H133.78V33.9677H121.501V40.0883H135.895ZM161.243 40.0883V45H140.765V18.5526H160.752V23.4643H146.848V29.2071H159.128V33.9677H146.848V40.0883H161.243Z" fill="#00D6E3"/>
<line x1="344.299" y1="73.968" x2="344.299" y2="80.265" stroke="#00D6E3" stroke-width="3.7782" stroke-linecap="round"/>
<line x1="344.299" y1="95.3778" x2="344.299" y2="101.675" stroke="#00D6E3" stroke-width="3.7782" stroke-linecap="round"/>
<line x1="358.152" y1="87.8214" x2="351.855" y2="87.8214" stroke="#00D6E3" stroke-width="3.7782" stroke-linecap="round"/>
<line x1="336.743" y1="87.8214" x2="330.446" y2="87.8214" stroke="#00D6E3" stroke-width="3.7782" stroke-linecap="round"/>
<line x1="32.0596" y1="153.114" x2="27.6069" y2="157.567" stroke="#00D6E3" stroke-width="3.7782" stroke-linecap="round"/>
<line x1="16.9209" y1="168.253" x2="12.4683" y2="172.706" stroke="#00D6E3" stroke-width="3.7782" stroke-linecap="round"/>
<line x1="32.0603" y1="172.706" x2="27.6077" y2="168.253" stroke="#00D6E3" stroke-width="3.7782" stroke-linecap="round"/>
<line x1="16.9207" y1="157.567" x2="12.4681" y2="153.114" stroke="#00D6E3" stroke-width="3.7782" stroke-linecap="round"/>
<circle cx="9.44561" cy="121.126" r="5.66729" fill="#FF5C00"/>
<circle cx="330.445" cy="36.1861" r="7.55639" stroke="#FF5C00" stroke-width="1.2594"/>
<circle opacity="0.5" cx="324.148" cy="57.5958" r="3.1485" fill="#FF5C00"/>
<ellipse cx="294.676" cy="253.059" rx="58.6765" ry="22.9412" fill="#ED9920"/>
<rect x="236" y="230.118" width="117.353" height="22.9412" fill="#ED9920"/>
<ellipse cx="294.676" cy="230.118" rx="58.6765" ry="22.9412" fill="#FFCD40"/>
<ellipse cx="295.118" cy="228.353" rx="49.4118" ry="17.6471" fill="#FFBF3E"/>
<path fill-rule="evenodd" clip-rule="evenodd" d="M343.977 231C344.341 230.137 344.53 229.253 344.53 228.353C344.53 218.607 322.407 210.706 295.118 210.706C267.828 210.706 245.706 218.607 245.706 228.353C245.706 229.252 245.895 230.136 246.258 231C249.835 222.509 270.348 216 295.117 216C319.888 216 340.402 222.51 343.977 231Z" fill="#ED9920"/>
<ellipse cx="314.97" cy="213.353" rx="58.6765" ry="22.9412" fill="#ED9920"/>
<rect x="256.294" y="190.412" width="117.353" height="22.9412" fill="#ED9920"/>
<ellipse cx="314.97" cy="190.412" rx="58.6765" ry="22.9412" fill="#FFCD40"/>
<ellipse cx="315.412" cy="188.647" rx="49.4118" ry="17.6471" fill="#FFBF3E"/>
<path fill-rule="evenodd" clip-rule="evenodd" d="M364.272 191.294C364.635 190.43 364.824 189.547 364.824 188.647C364.824 178.901 342.701 171 315.412 171C288.122 171 266 178.901 266 188.647C266 189.547 266.189 190.431 266.552 191.295C270.128 182.804 290.641 176.294 315.412 176.294C340.182 176.294 360.695 182.803 364.272 191.294Z" fill="#ED9920"/>
<ellipse cx="300.853" cy="171.882" rx="58.6765" ry="22.9412" fill="#ED9920"/>
<rect x="242.176" y="148.941" width="117.353" height="22.9412" fill="#ED9920"/>
<ellipse cx="300.853" cy="148.941" rx="58.6765" ry="22.9412" fill="#FFCD40"/>
<ellipse cx="301.294" cy="147.176" rx="49.4118" ry="17.6471" fill="#FFBF3E"/>
<path fill-rule="evenodd" clip-rule="evenodd" d="M350.154 149.824C350.517 148.96 350.706 148.076 350.706 147.176C350.706 137.43 328.583 129.529 301.294 129.529C274.005 129.529 251.882 137.43 251.882 147.176C251.882 148.076 252.071 148.96 252.435 149.824C256.011 141.333 276.524 134.824 301.294 134.824C326.064 134.824 346.578 141.333 350.154 149.824Z" fill="#ED9920"/>
<path d="M315.77 138.623L315.738 146.171C315.732 147.616 315.614 148.958 315.381 150.199C315.149 151.44 314.765 152.516 314.229 153.426C313.694 154.336 312.982 155.044 312.093 155.547C311.205 156.076 310.101 156.338 308.784 156.334C308.125 156.331 307.479 156.24 306.846 156.061C306.213 155.881 305.619 155.626 305.062 155.294C304.531 154.963 304.051 154.556 303.622 154.073C303.218 153.615 302.916 153.082 302.715 152.473L302.525 152.473C302.165 153.992 301.439 155.244 300.346 156.228C299.252 157.238 297.755 157.739 295.855 157.733C294.436 157.728 293.208 157.445 292.171 156.883C291.134 156.322 290.275 155.546 289.594 154.556C288.913 153.59 288.411 152.435 288.086 151.091C287.761 149.772 287.602 148.34 287.607 146.794L287.642 138.524L315.77 138.623ZM304.298 145.713C304.291 147.512 304.616 148.818 305.272 149.631C305.928 150.445 306.826 150.853 307.967 150.857C309.208 150.862 310.097 150.447 310.632 149.612C311.167 148.778 311.438 147.512 311.444 145.814L311.455 143.351L304.309 143.326L304.298 145.713ZM291.942 146.315C291.935 148.241 292.272 149.712 292.953 150.728C293.659 151.744 294.747 152.255 296.216 152.26C297.585 152.265 298.575 151.762 299.187 150.75C299.798 149.764 300.107 148.295 300.114 146.344L300.128 143.312L291.956 143.283L291.942 146.315Z" fill="#ED9920"/>
</svg>
