<svg width="46" height="44" viewBox="0 0 46 44" fill="none" xmlns="http://www.w3.org/2000/svg">
<g clip-path="url(#clip0)">
<path d="M40.6001 7.30021L38.5001 5.10021L38.3001 5.30021C30.4001 -0.699792 18.6001 0.200208 10.7001 7.90021C2.80013 15.6002 1.40013 27.2002 7.00013 35.3002L6.80013 35.5002L8.70013 37.4002C8.80013 37.5002 8.80013 37.5002 8.90013 37.6002C16.6001 45.6002 30.0001 45.4002 38.7001 37.0002C47.4001 28.6002 48.2001 15.3002 40.6001 7.30021Z" fill="#ED9920"/>
<g opacity="0.3">
<path opacity="0.3" d="M44.8581 24.9493L0.205078 20.2617L0.0380381 21.8529L44.6911 26.5405L44.8581 24.9493Z" fill="white"/>
<path opacity="0.3" d="M45.612 17.6602L0.958984 12.9727L0.290824 19.3375L44.9439 24.025L45.612 17.6602Z" fill="white"/>
</g>
<g clip-path="url(#clip1)">
<path d="M40.6001 7.30021L38.5001 5.10021L38.3001 5.30021C30.4001 -0.699792 18.6001 0.200208 10.7001 7.90021C2.80013 15.6002 1.40013 27.2002 7.00013 35.3002L6.80013 35.5002L8.70013 37.4002C8.80013 37.5002 8.80013 37.5002 8.90013 37.6002C16.6001 45.6002 30.0001 45.4002 38.7001 37.0002C47.4001 28.6002 48.2001 15.3002 40.6001 7.30021Z" fill="#ED9920"/>
<path d="M36.069 34.1848C44.7955 25.809 45.979 12.8816 38.7123 5.31059C31.4456 -2.2604 18.4805 -1.60797 9.75397 6.76784C1.02741 15.1437 -0.156062 28.0711 7.11062 35.6421C14.3773 43.2131 27.3424 42.5607 36.069 34.1848Z" fill="#FFCD40"/>
<path d="M33.4 31.6198C40.8913 24.4296 42.0035 13.4324 35.8842 7.05678C29.7649 0.681207 18.7313 1.34159 11.24 8.53178C3.74868 15.722 2.63647 26.7192 8.75578 33.0948C14.8751 39.4704 25.9087 38.81 33.4 31.6198Z" fill="#FFBF3E"/>
<path d="M12.7008 8.39831C19.0008 3.09831 27.2008 1.89831 33.2008 4.79831C27.2008 1.29831 18.6008 2.19831 12.1008 7.69831C5.60079 13.1983 3.10079 21.3983 5.50079 27.8983C3.80079 21.4983 6.40079 13.6983 12.7008 8.39831Z" fill="#ED9920"/>
</g>
<path d="M20.838 12.0816L25.3926 13.8889C26.099 14.1692 26.7337 14.4857 27.2967 14.8382C27.8597 15.1907 28.3126 15.5856 28.6555 16.0229C28.9984 16.4602 29.2077 16.9449 29.2835 17.477C29.3716 18.0141 29.2878 18.6048 29.0321 19.2492C28.9042 19.5715 28.7354 19.8703 28.5257 20.1457C28.316 20.4211 28.0765 20.6632 27.8072 20.8719C27.5428 21.0682 27.2511 21.225 26.932 21.3422C26.6303 21.452 26.311 21.4975 25.9742 21.4786L25.9373 21.5715C26.6121 22.0401 27.0854 22.6367 27.3573 23.3614C27.6415 24.0911 27.5992 24.9206 27.2304 25.8501C26.955 26.5441 26.5801 27.0911 26.1059 27.4911C25.6316 27.891 25.0864 28.1624 24.4703 28.3052C23.8665 28.4529 23.2043 28.477 22.4835 28.3775C21.7751 28.2829 21.0429 28.0856 20.287 27.7856L15.3792 25.8381L20.838 12.0816ZM22.9677 19.4033C23.8476 19.7525 24.5498 19.8447 25.0742 19.6798C25.5987 19.5149 25.9715 19.1537 26.1928 18.596C26.4338 17.9887 26.4015 17.4738 26.0957 17.0512C25.79 16.6287 25.222 16.2527 24.3917 15.9232L22.7558 15.274L21.3689 18.7689L22.9677 19.4033ZM20.8862 25.5704C21.8281 25.9442 22.6133 26.0621 23.2418 25.9242C23.8753 25.7739 24.3346 25.3394 24.6198 24.6206C24.8854 23.9513 24.8293 23.3696 24.4516 22.8755C24.0863 22.3862 23.4265 21.9523 22.4722 21.5736L20.5575 20.8138L18.9715 24.8106L20.8862 25.5704Z" fill="#ED9920"/>
</g>
<defs>
<clipPath id="clip0">
<rect width="45.8" height="43.4" fill="white"/>
</clipPath>
<clipPath id="clip1">
<rect width="45.8" height="43.4" fill="white"/>
</clipPath>
</defs>
</svg>
