<svg width="656" height="28" viewBox="0 0 656 28" fill="none" xmlns="http://www.w3.org/2000/svg">
<path d="M437.044 14.7C437.044 16.0067 436.904 17.1333 436.624 18.08C436.344 19.0267 435.964 19.8133 435.484 20.44C435.004 21.0667 434.437 21.5333 433.784 21.84C433.131 22.1333 432.424 22.28 431.664 22.28C430.904 22.28 430.197 22.1333 429.544 21.84C428.891 21.5333 428.317 21.0667 427.824 20.44C427.344 19.8133 426.964 19.0267 426.684 18.08C426.417 17.1333 426.284 16.0067 426.284 14.7C426.284 13.3933 426.417 12.2667 426.684 11.32C426.964 10.36 427.344 9.56667 427.824 8.94C428.317 8.31333 428.891 7.85333 429.544 7.56C430.197 7.25333 430.904 7.1 431.664 7.1C432.424 7.1 433.131 7.25333 433.784 7.56C434.437 7.85333 435.004 8.31333 435.484 8.94C435.964 9.56667 436.344 10.36 436.624 11.32C436.904 12.2667 437.044 13.3933 437.044 14.7ZM435.204 14.7C435.204 13.5533 435.104 12.5933 434.904 11.82C434.717 11.0333 434.457 10.4067 434.124 9.94C433.804 9.46 433.431 9.12 433.004 8.92C432.577 8.70667 432.131 8.6 431.664 8.6C431.197 8.6 430.751 8.70667 430.324 8.92C429.897 9.12 429.524 9.46 429.204 9.94C428.884 10.4067 428.624 11.0333 428.424 11.82C428.237 12.5933 428.144 13.5533 428.144 14.7C428.144 15.8333 428.237 16.7933 428.424 17.58C428.624 18.3533 428.884 18.98 429.204 19.46C429.524 19.94 429.897 20.2867 430.324 20.5C430.751 20.7 431.197 20.8 431.664 20.8C432.131 20.8 432.577 20.7 433.004 20.5C433.431 20.2867 433.804 19.94 434.124 19.46C434.457 18.98 434.717 18.3533 434.904 17.58C435.104 16.7933 435.204 15.8333 435.204 14.7ZM448.098 20.52V22H440.178V20.52H443.438V10.48C443.438 10.3333 443.438 10.1667 443.438 9.98C443.438 9.78 443.445 9.60667 443.458 9.46L440.798 11.84L439.818 10.66L443.758 7.26H445.218V20.52H448.098ZM460.872 14.7C460.872 16.0067 460.732 17.1333 460.452 18.08C460.172 19.0267 459.792 19.8133 459.312 20.44C458.832 21.0667 458.266 21.5333 457.612 21.84C456.959 22.1333 456.252 22.28 455.492 22.28C454.732 22.28 454.026 22.1333 453.372 21.84C452.719 21.5333 452.146 21.0667 451.652 20.44C451.172 19.8133 450.792 19.0267 450.512 18.08C450.246 17.1333 450.112 16.0067 450.112 14.7C450.112 13.3933 450.246 12.2667 450.512 11.32C450.792 10.36 451.172 9.56667 451.652 8.94C452.146 8.31333 452.719 7.85333 453.372 7.56C454.026 7.25333 454.732 7.1 455.492 7.1C456.252 7.1 456.959 7.25333 457.612 7.56C458.266 7.85333 458.832 8.31333 459.312 8.94C459.792 9.56667 460.172 10.36 460.452 11.32C460.732 12.2667 460.872 13.3933 460.872 14.7ZM459.032 14.7C459.032 13.5533 458.932 12.5933 458.732 11.82C458.546 11.0333 458.286 10.4067 457.952 9.94C457.632 9.46 457.259 9.12 456.832 8.92C456.406 8.70667 455.959 8.6 455.492 8.6C455.026 8.6 454.579 8.70667 454.152 8.92C453.726 9.12 453.352 9.46 453.032 9.94C452.712 10.4067 452.452 11.0333 452.252 11.82C452.066 12.5933 451.972 13.5533 451.972 14.7C451.972 15.8333 452.066 16.7933 452.252 17.58C452.452 18.3533 452.712 18.98 453.032 19.46C453.352 19.94 453.726 20.2867 454.152 20.5C454.579 20.7 455.026 20.8 455.492 20.8C455.959 20.8 456.406 20.7 456.832 20.5C457.259 20.2867 457.632 19.94 457.952 19.46C458.286 18.98 458.546 18.3533 458.732 17.58C458.932 16.7933 459.032 15.8333 459.032 14.7ZM462.406 13.94H469.006V15.34H462.406V13.94Z" fill="#16181C"/>
<path d="M563.703 13.94H570.303V15.34H563.703V13.94Z" fill="#16181C"/>
<path d="M486.202 7.73178L487.504 10.3128C487.791 10.8739 488.327 11.248 488.939 11.3415L491.848 11.753C492.939 11.9026 493.379 13.2305 492.595 13.9787L490.489 15.9799C490.03 16.4101 489.839 17.0273 489.934 17.6445L490.432 20.4687C490.623 21.5348 489.475 22.3577 488.48 21.8527L485.877 20.5248C485.322 20.2443 484.652 20.2443 484.097 20.5248L481.494 21.8527C480.518 22.3577 479.37 21.5348 479.542 20.4687L480.059 17.6445C480.174 17.046 479.963 16.4101 479.504 15.9799L477.398 13.9787C476.614 13.2118 477.054 11.9026 478.145 11.7343L481.054 11.3228C481.685 11.2293 482.221 10.8552 482.489 10.2941L483.791 7.71308C484.288 6.75921 485.705 6.75921 486.202 7.73178Z" fill="#D1D1D1"/>
<path d="M589.202 7.73178L590.504 10.3128C590.791 10.8739 591.327 11.248 591.939 11.3415L594.848 11.753C595.939 11.9026 596.379 13.2305 595.595 13.9787L593.489 15.9799C593.03 16.4101 592.839 17.0273 592.934 17.6445L593.432 20.4687C593.623 21.5348 592.475 22.3577 591.48 21.8527L588.877 20.5248C588.322 20.2443 587.652 20.2443 587.097 20.5248L584.494 21.8527C583.518 22.3577 582.37 21.5348 582.542 20.4687L583.059 17.6445C583.174 17.046 582.963 16.4101 582.504 15.9799L580.398 13.9787C579.614 13.2118 580.054 11.9026 581.145 11.7343L584.054 11.3228C584.685 11.2293 585.221 10.8552 585.489 10.2941L586.791 7.71308C587.288 6.75921 588.705 6.75921 589.202 7.73178Z" fill="#D1D1D1"/>
<path d="M506.202 7.73178L507.504 10.3128C507.791 10.8739 508.327 11.248 508.939 11.3415L511.848 11.753C512.939 11.9026 513.379 13.2305 512.595 13.9787L510.489 15.9799C510.03 16.4101 509.839 17.0273 509.934 17.6445L510.432 20.4687C510.623 21.5348 509.475 22.3577 508.48 21.8527L505.877 20.5248C505.322 20.2443 504.652 20.2443 504.097 20.5248L501.494 21.8527C500.518 22.3577 499.37 21.5348 499.542 20.4687L500.059 17.6445C500.174 17.046 499.963 16.4101 499.504 15.9799L497.398 13.9787C496.614 13.2118 497.054 11.9026 498.145 11.7343L501.054 11.3228C501.685 11.2293 502.221 10.8552 502.489 10.2941L503.791 7.71308C504.288 6.75921 505.705 6.75921 506.202 7.73178Z" fill="#D1D1D1"/>
<path d="M609.202 7.73178L610.504 10.3128C610.791 10.8739 611.327 11.248 611.939 11.3415L614.848 11.753C615.939 11.9026 616.379 13.2305 615.595 13.9787L613.489 15.9799C613.03 16.4101 612.839 17.0273 612.934 17.6445L613.432 20.4687C613.623 21.5348 612.475 22.3577 611.48 21.8527L608.877 20.5248C608.322 20.2443 607.652 20.2443 607.097 20.5248L604.494 21.8527C603.518 22.3577 602.37 21.5348 602.542 20.4687L603.059 17.6445C603.174 17.046 602.963 16.4101 602.504 15.9799L600.398 13.9787C599.614 13.2118 600.054 11.9026 601.145 11.7343L604.054 11.3228C604.685 11.2293 605.221 10.8552 605.489 10.2941L606.791 7.71308C607.288 6.75921 608.705 6.75921 609.202 7.73178Z" fill="#D1D1D1"/>
<path d="M526.202 7.73178L527.504 10.3128C527.791 10.8739 528.327 11.248 528.939 11.3415L531.848 11.753C532.939 11.9026 533.379 13.2305 532.595 13.9787L530.489 15.9799C530.03 16.4101 529.839 17.0273 529.934 17.6445L530.432 20.4687C530.623 21.5348 529.475 22.3577 528.48 21.8527L525.877 20.5248C525.322 20.2443 524.652 20.2443 524.097 20.5248L521.494 21.8527C520.518 22.3577 519.37 21.5348 519.542 20.4687L520.059 17.6445C520.174 17.046 519.963 16.4101 519.504 15.9799L517.398 13.9787C516.614 13.2118 517.054 11.9026 518.145 11.7343L521.054 11.3228C521.685 11.2293 522.221 10.8552 522.489 10.2941L523.791 7.71308C524.288 6.75921 525.705 6.75921 526.202 7.73178Z" fill="#D1D1D1"/>
<path d="M629.202 7.73178L630.504 10.3128C630.791 10.8739 631.327 11.248 631.939 11.3415L634.848 11.753C635.939 11.9026 636.379 13.2305 635.595 13.9787L633.489 15.9799C633.03 16.4101 632.839 17.0273 632.934 17.6445L633.432 20.4687C633.623 21.5348 632.475 22.3577 631.48 21.8527L628.877 20.5248C628.322 20.2443 627.652 20.2443 627.097 20.5248L624.494 21.8527C623.518 22.3577 622.37 21.5348 622.542 20.4687L623.059 17.6445C623.174 17.046 622.963 16.4101 622.504 15.9799L620.398 13.9787C619.614 13.2118 620.054 11.9026 621.145 11.7343L624.054 11.3228C624.685 11.2293 625.221 10.8552 625.489 10.2941L626.791 7.71308C627.288 6.75921 628.705 6.75921 629.202 7.73178Z" fill="#D1D1D1"/>
<path d="M546.202 7.73178L547.504 10.3128C547.791 10.8739 548.327 11.248 548.939 11.3415L551.848 11.753C552.939 11.9026 553.379 13.2305 552.595 13.9787L550.489 15.9799C550.03 16.4101 549.839 17.0273 549.934 17.6445L550.432 20.4687C550.623 21.5348 549.475 22.3577 548.48 21.8527L545.877 20.5248C545.322 20.2443 544.652 20.2443 544.097 20.5248L541.494 21.8527C540.518 22.3577 539.37 21.5348 539.542 20.4687L540.059 17.6445C540.174 17.046 539.963 16.4101 539.504 15.9799L537.398 13.9787C536.614 13.2118 537.054 11.9026 538.145 11.7343L541.054 11.3228C541.685 11.2293 542.221 10.8552 542.489 10.2941L543.791 7.71308C544.288 6.75921 545.705 6.75921 546.202 7.73178Z" fill="#D1D1D1"/>
<path d="M649.202 7.73178L650.504 10.3128C650.791 10.8739 651.327 11.248 651.939 11.3415L654.848 11.753C655.939 11.9026 656.379 13.2305 655.595 13.9787L653.489 15.9799C653.03 16.4101 652.839 17.0273 652.934 17.6445L653.432 20.4687C653.623 21.5348 652.475 22.3577 651.48 21.8527L648.877 20.5248C648.322 20.2443 647.652 20.2443 647.097 20.5248L644.494 21.8527C643.518 22.3577 642.37 21.5348 642.542 20.4687L643.059 17.6445C643.174 17.046 642.963 16.4101 642.504 15.9799L640.398 13.9787C639.614 13.2118 640.054 11.9026 641.145 11.7343L644.054 11.3228C644.685 11.2293 645.221 10.8552 645.489 10.2941L646.791 7.71308C647.288 6.75921 648.705 6.75921 649.202 7.73178Z" fill="#D1D1D1"/>
</svg>
