<svg width="22" height="26" viewBox="0 0 22 26" fill="none" xmlns="http://www.w3.org/2000/svg">
<g clip-path="url(#clip0)">
<path d="M18.3727 13.813C18.4107 17.7477 21.959 19.057 21.9983 19.0737C21.9683 19.166 21.4314 20.9396 20.1289 22.7716C19.0029 24.3555 17.8344 25.9335 15.9936 25.9662C14.1848 25.9982 13.6032 24.9338 11.5352 24.9338C9.46788 24.9338 8.82166 25.9335 7.10944 25.9983C5.33257 26.063 3.97946 24.2856 2.84423 22.7075C0.524425 19.4795 -1.24839 13.586 1.13205 9.60779C2.3146 7.63219 4.42791 6.38116 6.72171 6.34908C8.46655 6.31705 10.1134 7.4789 11.1801 7.4789C12.2461 7.4789 14.2474 6.08167 16.3514 6.28687C17.2322 6.32216 19.7046 6.62931 21.2921 8.86591C21.1642 8.94223 18.3421 10.5235 18.3727 13.813ZM14.9733 4.15129C15.9167 3.05226 16.5516 1.5223 16.3784 0C15.0186 0.0526003 13.3744 0.872106 12.399 1.97054C11.5249 2.94325 10.7594 4.50013 10.966 5.9923C12.4816 6.10516 14.0299 5.25102 14.9733 4.15129Z" fill="black"/>
</g>
<defs>
<clipPath id="clip0">
<rect width="22" height="26" fill="white"/>
</clipPath>
</defs>
</svg>
