<svg width="24" height="24" viewBox="0 0 24 24" fill="none" xmlns="http://www.w3.org/2000/svg">
<g clip-path="url(#clip0)">
<path d="M12 24C18.6275 24 24 18.6275 24 12C24 5.37262 18.6275 3.8147e-05 12 3.8147e-05C5.37262 3.8147e-05 3.8147e-05 5.37262 3.8147e-05 12C3.8147e-05 18.6275 5.37262 24 12 24Z" fill="#3C5A9A"/>
<path d="M15.902 3.68336H13.2437C11.6662 3.68336 9.91152 4.34684 9.91152 6.63352C9.91922 7.43029 9.91152 8.19336 9.91152 9.05215H8.08654V11.9562H9.96799V20.3166H13.4253V11.9011H15.7072L15.9136 9.044H13.3657C13.3657 9.044 13.3714 7.77306 13.3657 7.40397C13.3657 6.50032 14.306 6.55207 14.3625 6.55207C14.81 6.55207 15.68 6.55338 15.9033 6.55207V3.68336H15.902Z" fill="white"/>
</g>
<defs>
<clipPath id="clip0">
<rect width="24" height="24" fill="white"/>
</clipPath>
</defs>
</svg>
