<svg width="20" height="21" viewBox="0 0 20 21" fill="none" xmlns="http://www.w3.org/2000/svg">
<path d="M19.9893 10.6964C19.9893 9.83608 19.9213 9.20824 19.774 8.55716H10.1991V12.4404H15.8194C15.7061 13.4054 15.0942 14.8588 13.7344 15.8354L13.7154 15.9654L16.7428 18.3718L16.9525 18.3933C18.8788 16.5679 19.9893 13.8821 19.9893 10.6964Z" fill="#4285F4"/>
<path d="M10.1992 20.9279C12.9526 20.9279 15.2642 19.9977 16.9526 18.3933L13.7345 15.8354C12.8733 16.4516 11.7175 16.8818 10.1992 16.8818C7.50232 16.8818 5.21341 15.0565 4.39748 12.5335L4.27789 12.5439L1.12993 15.0436L1.08876 15.1611C2.76578 18.5792 6.2105 20.9279 10.1992 20.9279Z" fill="#34A853"/>
<path d="M4.39771 12.5334C4.18242 11.8824 4.05783 11.1847 4.05783 10.4639C4.05783 9.74301 4.18242 9.04545 4.38639 8.39437L4.38068 8.2557L1.19328 5.71582L1.08899 5.76672C0.397813 7.18518 0.00121307 8.77806 0.00121307 10.4639C0.00121307 12.1498 0.397813 13.7426 1.08899 15.161L4.39771 12.5334Z" fill="#FBBC05"/>
<path d="M10.1991 4.04605C12.1141 4.04605 13.4059 4.89479 14.1424 5.60406L17.0206 2.72064C15.2529 1.03479 12.9526 2.28882e-05 10.1991 2.28882e-05C6.2105 2.28882e-05 2.76577 2.34858 1.08876 5.76677L4.38615 8.39441C5.21341 5.87145 7.50232 4.04605 10.1991 4.04605Z" fill="#EB4335"/>
</svg>
