<svg width="29" height="26" viewBox="0 0 29 26" fill="none" xmlns="http://www.w3.org/2000/svg">
<path d="M14.5343 0C6.85315 0 0.628258 4.97467 0.628258 11.1107C0.628258 15.0569 3.20959 18.5178 7.08159 20.4938L5.76808 25.4453C5.71668 25.5956 5.75665 25.7573 5.86516 25.8671C5.9394 25.9422 6.0422 25.9827 6.15071 25.9827C6.23637 25.9827 6.31632 25.948 6.39057 25.8902L12.0272 22.0422C12.8439 22.1636 13.6777 22.2271 14.5286 22.2271C22.2098 22.2271 28.4347 17.2524 28.4347 11.1107C28.4461 4.97467 22.2155 0 14.5343 0Z" fill="#381E1E"/>
<path d="M5.51095 9.35424H3.99755C3.79196 9.35424 3.60921 9.30224 3.46073 9.20979C3.31225 9.11735 3.22087 8.97868 3.18089 8.79957C3.16947 8.75335 3.16376 8.69557 3.15805 8.64357C3.15805 8.41824 3.238 8.24491 3.39791 8.12357C3.5521 8.00224 3.75199 7.93291 3.99184 7.93291H8.61768C8.82898 7.93291 9.00602 7.98491 9.15451 8.07735C9.30299 8.17557 9.40008 8.30846 9.43434 8.48757C9.44005 8.5338 9.44576 8.5858 9.44576 8.6378C9.44576 8.86891 9.36581 9.04224 9.21162 9.16935C9.05742 9.29068 8.86325 9.35424 8.61768 9.35424H7.10429V14.6293C7.10429 14.8836 7.03005 15.0858 6.88728 15.2418C6.7445 15.3978 6.54462 15.4729 6.29905 15.4729C6.09917 15.4729 5.92784 15.4151 5.78507 15.3053C5.6423 15.1898 5.55663 15.0396 5.51666 14.8489C5.50523 14.7796 5.49952 14.7102 5.50523 14.6351L5.51095 9.35424Z" fill="#FFE600"/>
<path d="M9.83419 8.31424C9.89701 8.12935 9.9941 7.99646 10.1255 7.92135C10.2511 7.84046 10.4167 7.80002 10.6166 7.80002H10.9992C11.2048 7.80002 11.3819 7.84046 11.5246 7.92713C11.6674 8.0138 11.7759 8.17557 11.8559 8.41824L13.7861 14.0862C13.849 14.2596 13.8889 14.4098 13.9175 14.5369C13.9346 14.6178 13.9403 14.6871 13.946 14.7333C13.9403 14.9413 13.8661 15.1147 13.7176 15.2591C13.5691 15.4036 13.3921 15.4729 13.1865 15.4729C12.8153 15.4729 12.5754 15.3169 12.4669 15.0107L12.05 13.7742H9.48012L9.06322 15.0107C8.96614 15.3169 8.72628 15.4729 8.34365 15.4729C8.15519 15.4729 7.99528 15.4267 7.86964 15.3227C7.744 15.2245 7.65834 15.0858 7.62407 14.9067C7.61265 14.8547 7.60694 14.7969 7.60694 14.7333C7.60123 14.6525 7.61836 14.5542 7.65263 14.4329C7.68118 14.3173 7.72116 14.196 7.76113 14.0862L9.83419 8.31424ZM10.805 9.6258H10.7822L9.83991 12.6014H11.7131L10.805 9.6258Z" fill="#FFE600"/>
<path d="M14.1972 8.63776C14.1972 8.38932 14.2714 8.18132 14.4142 8.02532C14.557 7.87509 14.7568 7.7942 15.0024 7.7942C15.2023 7.7942 15.3736 7.85198 15.5164 7.96176C15.6535 8.07732 15.7448 8.22754 15.7848 8.4182C15.7962 8.48754 15.8019 8.56265 15.7962 8.63198V13.9129H18.4746C18.6917 13.9129 18.8687 13.9591 19.0172 14.0573C19.1657 14.1555 19.257 14.2942 19.2913 14.4675C19.3027 14.5138 19.3084 14.5715 19.3141 14.6235C19.3141 14.8489 19.2342 15.0222 19.08 15.1493C18.9258 15.2706 18.7259 15.3342 18.4861 15.3342H15.1338C14.8825 15.3342 14.6826 15.2822 14.5341 15.1782C14.3799 15.08 14.2771 14.9124 14.2314 14.6813C14.2143 14.5831 14.2029 14.4733 14.1972 14.352V8.63776Z" fill="#FFE600"/>
<path d="M19.4685 8.63776C19.4685 8.38932 19.5427 8.18132 19.6855 8.02532C19.8282 7.87509 20.0281 7.7942 20.2737 7.7942C20.4736 7.7942 20.6449 7.85198 20.7877 7.96176C20.9304 8.07732 21.0161 8.22754 21.0561 8.41821C21.0675 8.48754 21.0789 8.56265 21.0732 8.63198V11.0933L23.586 8.16976C23.7002 8.04265 23.7973 7.95598 23.8887 7.89243C23.9801 7.82887 24.0886 7.79998 24.2199 7.79998C24.397 7.79998 24.5569 7.85198 24.6996 7.95021C24.8424 8.04843 24.9338 8.17554 24.9681 8.34309C24.9681 8.34887 24.9738 8.37198 24.9795 8.40665C24.9795 8.42976 24.9795 8.45865 24.9852 8.47598C24.9852 8.59154 24.9624 8.69554 24.911 8.78221C24.8596 8.87465 24.7967 8.96132 24.7225 9.05376L23.0778 10.8738L25.0252 13.9938L25.0823 14.0862C25.2136 14.3 25.2936 14.456 25.3107 14.5542C25.3107 14.56 25.3164 14.5773 25.3221 14.6062C25.3221 14.6351 25.3221 14.6467 25.3221 14.6582C25.3221 14.9471 25.2422 15.1551 25.0823 15.2822C24.9224 15.4093 24.7282 15.4729 24.4998 15.4729C24.3342 15.4729 24.2028 15.444 24.1 15.3862C23.9972 15.3169 23.8887 15.2071 23.7859 15.0338L21.9413 12.0293L21.0618 12.9538L21.0732 14.6293C21.0675 14.8835 20.999 15.0858 20.8505 15.2418C20.702 15.3978 20.5078 15.4729 20.2623 15.4729C20.0624 15.4729 19.8911 15.4151 19.7483 15.3053C19.6055 15.1898 19.5199 15.0395 19.4799 14.8489C19.4685 14.7795 19.4627 14.7102 19.4627 14.6351L19.4685 8.63776Z" fill="#FFE600"/>
</svg>
